<?xml version="1.0" encoding="UTF-8" standalone="no"?>
<svg
   xmlns:dc="http://purl.org/dc/elements/1.1/"
   xmlns:cc="http://creativecommons.org/ns#"
   xmlns:rdf="http://www.w3.org/1999/02/22-rdf-syntax-ns#"
   xmlns:svg="http://www.w3.org/2000/svg"
   xmlns="http://www.w3.org/2000/svg"
   viewBox="0 0 765 990"
   height="990"
   width="765"
   xml:space="preserve"
   version="1.1"
   id="svg2"><metadata
     id="metadata8"><rdf:RDF><cc:Work
         rdf:about=""><dc:format>image/svg+xml</dc:format><dc:type
           rdf:resource="http://purl.org/dc/dcmitype/StillImage" /></cc:Work></rdf:RDF></metadata><defs
     id="defs6"><clipPath
       id="clipPath16"
       clipPathUnits="userSpaceOnUse"><path
         style="clip-rule:evenodd"
         id="path18"
         d="M 0,0 612,0 612,792 0,792 0,0 Z" /></clipPath><clipPath
       id="clipPath32"
       clipPathUnits="userSpaceOnUse"><path
         style="clip-rule:evenodd"
         id="path34"
         d="m 0,0 612,0 0,791.25 -612,0 L 0,0 Z" /></clipPath></defs><g
     transform="scale(1.25,1.25)"
     id="g10"><g
       id="g12"><g
         clip-path="url(#clipPath16)"
         id="g14"><g
           transform="scale(0.75,0.75)"
           id="g20"><path
             id="path22"
             style="fill:#ffffff;fill-opacity:1;fill-rule:nonzero;stroke:none"
             d="M 0,0 816,0 816,1056 0,1056 0,0 Z" /><path
             id="path24"
             style="fill:#ffffff;fill-opacity:1;fill-rule:nonzero;stroke:none"
             d="M 0,0 816,0 816,1056 0,1056 0,0 Z" /><path
             id="path26"
             style="fill:#ffffff;fill-opacity:1;fill-rule:nonzero;stroke:none"
             d="M 0,0 816,0 816,1056 0,1056 0,0 Z" /></g></g></g><g
       id="g28"><g
         clip-path="url(#clipPath32)"
         id="g30"><g
           transform="scale(0.75,0.75)"
           id="g36"><path
             id="path38"
             style="fill:#ffffff;fill-opacity:1;fill-rule:nonzero;stroke:none"
             d="M 0,0 816,0 816,1055 0,1055 0,0 Z" /><path
             id="path40"
             style="fill:#ffffff;fill-opacity:1;fill-rule:nonzero;stroke:none"
             d="m 0,96 816,0 0,960 -816,0 0,-960 z" /><text
             id="text42"
             style="font-variant:normal;font-weight:normal;font-size:12px;font-family:DroidSerif;-inkscape-font-specification:DroidSerif;writing-mode:lr-tb;fill:#000000;fill-opacity:1;fill-rule:nonzero;stroke:none"
             transform="translate(96,108)"><tspan
               id="tspan44"
               y="0"
               x="0 7.4765625 16.042969 23.888672 31.242188 34.359375 41.285156 45.005859 52.371094 58.792969 64.447266 67.564453 74.320312 81.685547 89.302734 93.023438 97.248047 100.36523 107.73047 114.65625 122.02148 129.63867 133.35938 140.11523 144.33984 148.17773 155.10352 162.84375 165.96094 169.79883 175.21289 178.33008 184.75195 191.68945 199.05469 205.47656 211.38281 215.60742 222.0293 229.39453 232.51172 236.73633 243.66211 246.7793 254.14453 261.07031 268.6875 276.05273 279.77344 286.19531 289.3125 296.67773 303.45703 306.57422 313.2832 319.99219 326.70117 333.41016">LGBT older adult population is expected to double by 2030.</tspan></text>
<text
             id="text46"
             style="font-variant:normal;font-weight:normal;font-size:12px;font-family:DroidSerif;-inkscape-font-specification:DroidSerif;writing-mode:lr-tb;fill:#000000;fill-opacity:1;fill-rule:nonzero;stroke:none"
             transform="translate(432.84375,108)"><tspan
               id="tspan48"
               y="0"
               x="0"> </tspan></text>
</g></g></g></g></svg>