<?xml version="1.0" encoding="UTF-8" standalone="no"?>
<svg
   xmlns:dc="http://purl.org/dc/elements/1.1/"
   xmlns:cc="http://creativecommons.org/ns#"
   xmlns:rdf="http://www.w3.org/1999/02/22-rdf-syntax-ns#"
   xmlns:svg="http://www.w3.org/2000/svg"
   xmlns="http://www.w3.org/2000/svg"
   viewBox="0 0 765 990"
   height="990"
   width="765"
   xml:space="preserve"
   version="1.1"
   id="svg2"><metadata
     id="metadata8"><rdf:RDF><cc:Work
         rdf:about=""><dc:format>image/svg+xml</dc:format><dc:type
           rdf:resource="http://purl.org/dc/dcmitype/StillImage" /></cc:Work></rdf:RDF></metadata><defs
     id="defs6"><clipPath
       id="clipPath16"
       clipPathUnits="userSpaceOnUse"><path
         style="clip-rule:evenodd"
         id="path18"
         d="M 0,0 612,0 612,792 0,792 0,0 Z" /></clipPath><clipPath
       id="clipPath32"
       clipPathUnits="userSpaceOnUse"><path
         style="clip-rule:evenodd"
         id="path34"
         d="m 0,0 612,0 0,791.25 -612,0 L 0,0 Z" /></clipPath></defs><g
     transform="scale(1.25,1.25)"
     id="g10"><g
       id="g12"><g
         clip-path="url(#clipPath16)"
         id="g14"><g
           transform="scale(0.75,0.75)"
           id="g20"><path
             id="path22"
             style="fill:#ffffff;fill-opacity:1;fill-rule:nonzero;stroke:none"
             d="M 0,0 816,0 816,1056 0,1056 0,0 Z" /><path
             id="path24"
             style="fill:#ffffff;fill-opacity:1;fill-rule:nonzero;stroke:none"
             d="M 0,0 816,0 816,1056 0,1056 0,0 Z" /><path
             id="path26"
             style="fill:#ffffff;fill-opacity:1;fill-rule:nonzero;stroke:none"
             d="M 0,0 816,0 816,1056 0,1056 0,0 Z" /></g></g></g><g
       id="g28"><g
         clip-path="url(#clipPath32)"
         id="g30"><g
           transform="scale(0.75,0.75)"
           id="g36"><path
             id="path38"
             style="fill:#ffffff;fill-opacity:1;fill-rule:nonzero;stroke:none"
             d="M 0,0 816,0 816,1055 0,1055 0,0 Z" /><path
             id="path40"
             style="fill:#ffffff;fill-opacity:1;fill-rule:nonzero;stroke:none"
             d="m 0,96 816,0 0,960 -816,0 0,-960 z" /><text
             id="text42"
             style="font-variant:normal;font-weight:normal;font-size:12px;font-family:DroidSerif;-inkscape-font-specification:DroidSerif;writing-mode:lr-tb;fill:#000000;fill-opacity:1;fill-rule:nonzero;stroke:none"
             transform="translate(96,108)"><tspan
               id="tspan44"
               y="0"
               x="0 8.4609375 12.181641 16.40625 24.023438 30.949219 38.566406 45.023438 52.640625 55.757812 62.466797 69.175781 79.927734 83.044922 89.970703 94.400391 97.517578 101.23828 108.16406 115.9043 122.36133 126.08203 130.30664 136.72852 142.38281 153.7207 156.83789 162.74414 169.5 175.1543 181.57617 184.69336 188.53125 196.27148 199.38867 203.61328 211.23047 217.65234 220.76953 229.37109 232.80469 239.33203 242.76562 245.88281 249.7207 255.13477 258.25195 265.61719 271.27148 278.19727 285.14648 288.98438 296.34961 302.77148 310.13672 313.25391 320.61914 327.39844 330.51562 334.94531 341.70117 353.03906 356.87695 360.59766 367.37695 370.49414 381.83203 388.25391 399.5918 406.95703 413.37891 419.0332 424.44727 427.44727 430.56445 438.04102 446.60742 454.45312 461.80664 464.92383 471.3457 475.06641 482.43164 488.85352 494.50781 499.92188 503.03906 509.79492 515.44922 521.87109 524.98828 531.69727 538.63477 541.75195 548.50781 553.92188 557.03906 560.75977 564.59766 571.61719 578.03906 581.75977 588.53906 591.65625 595.88086 602.80664 605.92383 613.28906">Although 80% of long-term care in the U.S. is provided by family members, LGBT elders are 2x as likely to be</tspan></text>
<text
             id="text46"
             style="font-variant:normal;font-weight:normal;font-size:12px;font-family:DroidSerif;-inkscape-font-specification:DroidSerif;writing-mode:lr-tb;fill:#000000;fill-opacity:1;fill-rule:nonzero;stroke:none"
             transform="translate(715.70313,108)"><tspan
               id="tspan48"
               y="0"
               x="0"> </tspan></text>
<text
             id="text50"
             style="font-variant:normal;font-weight:normal;font-size:12px;font-family:DroidSerif;-inkscape-font-specification:DroidSerif;writing-mode:lr-tb;fill:#000000;fill-opacity:1;fill-rule:nonzero;stroke:none"
             transform="translate(96,130)"><tspan
               id="tspan52"
               y="0"
               x="0 5.4140625 9.2519531 16.992188 23.449219 27.169922 33.591797 36.708984 43.464844 51.205078 58.570312 61.6875 68.396484 75.333984 78.451172 89.789062 96.714844 102.36914 108.79102 111.9082 115.62891 119.4668 126.48633 132.9082 136.62891 143.4082 146.52539 150.75 157.67578 160.79297 168.1582 174.58008 177.69727 188.03906 191.87695 196.10156 203.71875 210.64453 218.26172 222.48633 225.60352 231.50977 239.12695 242.96484 246.68555 254.05078 259.70508 266.12695 273.86719 276.98438 281.20898 288.82617 295.58203 303.32227 306.43945 310.66406 318.28125 324.70312 328.54102 334.19531 337.3125 344.92969 351.35156 355.57617 361.99805 367.65234 374.57812 379.99219 386.41406 393.35156 400.96875 407.72461 411.44531 414.5625 420.46875 427.39453 435.01172 442.75195 446.97656 453.39844 459.05273 466.41797 473.17383 478.82812 483.05273 488.4668">single and 4x more likely to be without children than their heterosexual counterparts.</tspan></text>
<text
             id="text54"
             style="font-variant:normal;font-weight:normal;font-size:12px;font-family:DroidSerif;-inkscape-font-specification:DroidSerif;writing-mode:lr-tb;fill:#000000;fill-opacity:1;fill-rule:nonzero;stroke:none"
             transform="translate(587.89063,130)"><tspan
               id="tspan56"
               y="0"
               x="0"> </tspan></text>
</g></g></g></g></svg>