<?xml version="1.0" encoding="UTF-8" standalone="no"?>
<svg
   xmlns:dc="http://purl.org/dc/elements/1.1/"
   xmlns:cc="http://creativecommons.org/ns#"
   xmlns:rdf="http://www.w3.org/1999/02/22-rdf-syntax-ns#"
   xmlns:svg="http://www.w3.org/2000/svg"
   xmlns="http://www.w3.org/2000/svg"
   viewBox="0 0 765 990"
   height="990"
   width="765"
   xml:space="preserve"
   version="1.1"
   id="svg2"><metadata
     id="metadata8"><rdf:RDF><cc:Work
         rdf:about=""><dc:format>image/svg+xml</dc:format><dc:type
           rdf:resource="http://purl.org/dc/dcmitype/StillImage" /></cc:Work></rdf:RDF></metadata><defs
     id="defs6"><clipPath
       id="clipPath16"
       clipPathUnits="userSpaceOnUse"><path
         style="clip-rule:evenodd"
         id="path18"
         d="M 0,0 612,0 612,792 0,792 0,0 Z" /></clipPath><clipPath
       id="clipPath32"
       clipPathUnits="userSpaceOnUse"><path
         style="clip-rule:evenodd"
         id="path34"
         d="m 0,0 612,0 0,791.25 -612,0 L 0,0 Z" /></clipPath></defs><g
     transform="scale(1.25,1.25)"
     id="g10"><g
       id="g12"><g
         clip-path="url(#clipPath16)"
         id="g14"><g
           transform="scale(0.75,0.75)"
           id="g20"><path
             id="path22"
             style="fill:#ffffff;fill-opacity:1;fill-rule:nonzero;stroke:none"
             d="M 0,0 816,0 816,1056 0,1056 0,0 Z" /><path
             id="path24"
             style="fill:#ffffff;fill-opacity:1;fill-rule:nonzero;stroke:none"
             d="M 0,0 816,0 816,1056 0,1056 0,0 Z" /><path
             id="path26"
             style="fill:#ffffff;fill-opacity:1;fill-rule:nonzero;stroke:none"
             d="M 0,0 816,0 816,1056 0,1056 0,0 Z" /></g></g></g><g
       id="g28"><g
         clip-path="url(#clipPath32)"
         id="g30"><g
           transform="scale(0.75,0.75)"
           id="g36"><path
             id="path38"
             style="fill:#ffffff;fill-opacity:1;fill-rule:nonzero;stroke:none"
             d="M 0,0 816,0 816,1055 0,1055 0,0 Z" /><path
             id="path40"
             style="fill:#ffffff;fill-opacity:1;fill-rule:nonzero;stroke:none"
             d="m 0,96 816,0 0,960 -816,0 0,-960 z" /><text
             id="text42"
             style="font-variant:normal;font-weight:bold;font-size:12px;font-family:DroidSerif;-inkscape-font-specification:DroidSerif-Bold;writing-mode:lr-tb;fill:#000000;fill-opacity:1;fill-rule:nonzero;stroke:none"
             transform="translate(96,108)"><tspan
               id="tspan44"
               y="0"
               x="0"> </tspan></text>
<text
             id="text46"
             style="font-variant:normal;font-weight:bold;font-size:12px;font-family:DroidSerif;-inkscape-font-specification:DroidSerif-Bold;writing-mode:lr-tb;fill:#000000;fill-opacity:1;fill-rule:nonzero;stroke:none"
             transform="translate(96,130)"><tspan
               id="tspan48"
               y="0"
               x="0 7.8457031 17.074219 25.136719 32.970703 36.087891 43.441406 47.666016 55.453125 62.302734 68.578125 71.695312 78.884766 86.671875 94.675781 98.900391 103.75781 109.61133 112.72852 120.51562 127.86914 130.98633 138.99023 146.34375 151.20117 154.31836 161.50781 167.83008 174.15234 181.00195 186.85547 192.70898 195.82617 203.01562 209.73633 213.96094 221.96484 228.68555 231.80273 237.65625 244.50586 250.78125 258.05273 262.27734 268.59961 275.44922 281.30273 284.41992 291.77344 299.77734 304.63477 307.75195 315.10547 319.99219 323.10938 327.99609 334.8457 342.03516 348.31055 351.42773 358.78125 363.66797 366.78516 374.78906 381.97852 388.25391 395.44336 401.29688 407.15039 418.98047 425.83008 433.83398 438.69141 441.80859 449.16211 455.4375 458.55469 466.3418 470.56641 476.41992 483.60938 491.34961 499.08984 505.36523 512.71875 519.99023 527.17969 531.4043">LGBT older adults do not access aging services out of fear of harassment or disapproval.</tspan></text>
</g></g></g></g></svg>