<?xml version="1.0" encoding="UTF-8" standalone="no"?>
<svg
   xmlns:dc="http://purl.org/dc/elements/1.1/"
   xmlns:cc="http://creativecommons.org/ns#"
   xmlns:rdf="http://www.w3.org/1999/02/22-rdf-syntax-ns#"
   xmlns:svg="http://www.w3.org/2000/svg"
   xmlns="http://www.w3.org/2000/svg"
   viewBox="0 0 765 990"
   height="990"
   width="765"
   xml:space="preserve"
   version="1.1"
   id="svg2"><metadata
     id="metadata8"><rdf:RDF><cc:Work
         rdf:about=""><dc:format>image/svg+xml</dc:format><dc:type
           rdf:resource="http://purl.org/dc/dcmitype/StillImage" /></cc:Work></rdf:RDF></metadata><defs
     id="defs6"><clipPath
       id="clipPath16"
       clipPathUnits="userSpaceOnUse"><path
         style="clip-rule:evenodd"
         id="path18"
         d="M 0,0 612,0 612,792 0,792 0,0 Z" /></clipPath><clipPath
       id="clipPath32"
       clipPathUnits="userSpaceOnUse"><path
         style="clip-rule:evenodd"
         id="path34"
         d="m 0,0 612,0 0,791.25 -612,0 L 0,0 Z" /></clipPath></defs><g
     transform="scale(1.25,1.25)"
     id="g10"><g
       id="g12"><g
         clip-path="url(#clipPath16)"
         id="g14"><g
           transform="scale(0.75,0.75)"
           id="g20"><path
             id="path22"
             style="fill:#ffffff;fill-opacity:1;fill-rule:nonzero;stroke:none"
             d="M 0,0 816,0 816,1056 0,1056 0,0 Z" /><path
             id="path24"
             style="fill:#ffffff;fill-opacity:1;fill-rule:nonzero;stroke:none"
             d="M 0,0 816,0 816,1056 0,1056 0,0 Z" /><path
             id="path26"
             style="fill:#ffffff;fill-opacity:1;fill-rule:nonzero;stroke:none"
             d="M 0,0 816,0 816,1056 0,1056 0,0 Z" /></g></g></g><g
       id="g28"><g
         clip-path="url(#clipPath32)"
         id="g30"><g
           transform="scale(0.75,0.75)"
           id="g36"><path
             id="path38"
             style="fill:#ffffff;fill-opacity:1;fill-rule:nonzero;stroke:none"
             d="M 0,0 816,0 816,1055 0,1055 0,0 Z" /><path
             id="path40"
             style="fill:#ffffff;fill-opacity:1;fill-rule:nonzero;stroke:none"
             d="m 0,96 816,0 0,960 -816,0 0,-960 z" /><text
             id="text42"
             style="font-variant:normal;font-weight:normal;font-size:12px;font-family:DroidSerif;-inkscape-font-specification:DroidSerif;writing-mode:lr-tb;fill:#000000;fill-opacity:1;fill-rule:nonzero;stroke:none"
             transform="translate(96,108)"><tspan
               id="tspan44"
               y="0"
               x="0 8.90625 16.646484 20.367188 27.146484 30.263672 36.972656 43.681641 54.433594 57.550781 64.476562 68.90625 72.023438 79.5 88.066406 95.912109 103.26562 106.38281 111.79688 118.21875 125.95898 129.79688 136.72266 142.37695 147.79102 150.9082 155.33789 161.75977 165.48047 169.70508 172.82227 178.72852 185.6543 196.99219 201.42188 208.34766 214.00195 218.22656 224.98242 232.34766 236.06836 242.49023 245.60742 252.97266 259.39453 263.23242 270.97266 277.42969 280.54688 287.47266 294.83789 301.25977 309 312.11719 318.87305 326.23828 333.16406 340.78125 345.00586 348.12305 352.34766 359.96484 366.38672 370.22461 375.87891 378.99609 384.41016 390.83203 397.76953 405.38672 412.14258 415.86328 418.98047 422.81836 430.18359 436.60547 444.3457 448.57031 452.4082 456.63281 463.41211 466.5293 470.68359 473.80078 480.50977 487.21875 493.92773 500.63672 503.75391 509.4082 515.83008 523.19531 530.12109 535.77539 540 543.11719 546.95508 554.69531 557.8125 562.03711 569.6543">Only 22% of LGBT seniors felt comfortable being open about their sexual identity ( 2011 report in the</tspan></text>
<text
             id="text46"
             style="font-variant:normal;font-weight:normal;font-size:12px;font-family:DroidSerif;-inkscape-font-specification:DroidSerif;writing-mode:lr-tb;fill:#000000;fill-opacity:1;fill-rule:nonzero;stroke:none"
             transform="translate(672.0625,108)"><tspan
               id="tspan48"
               y="0"
               x="0"> </tspan></text>
<text
             id="text50"
             style="font-variant:normal;font-weight:normal;font-size:12px;font-family:DroidSerif;-inkscape-font-specification:DroidSerif;writing-mode:lr-tb;fill:#000000;fill-opacity:1;fill-rule:nonzero;stroke:none"
             transform="translate(96,130)"><tspan
               id="tspan52"
               y="0"
               x="0 9.1582031 15.914062 20.138672 23.976562 30.902344 38.642578 45.398438 49.119141 52.236328 60.105469 66.527344 71.941406 78.867188 86.484375 92.138672 98.044922 104.4668 107.58398 114.94922 121.37109 129.11133 133.33594 139.75781 145.41211 148.5293 155.45508 163.19531 166.3125 173.78906 182.35547 190.20117 197.55469 200.67188 209.13281 215.58984 219.42773 227.16797 233.625 237.7793">National Resource Center on LGBT Aging).</tspan></text>
<text
             id="text54"
             style="font-variant:normal;font-weight:normal;font-size:12px;font-family:DroidSerif;-inkscape-font-specification:DroidSerif;writing-mode:lr-tb;fill:#000000;fill-opacity:1;fill-rule:nonzero;stroke:none"
             transform="translate(337.20313,130)"><tspan
               id="tspan56"
               y="0"
               x="0"> </tspan></text>
</g></g></g></g></svg>